<svg width="511" height="511.99996" xmlns="http://www.w3.org/2000/svg">

 <g>
  <title>Layer 1</title>
  <path fill="#ffffff" id="svg_1" d="m289.69922,511.99998l-81.99219,0c-13.69531,0 -24.83593,-11.14062 -24.83593,-24.83594l0,-184.9375l-47.83594,0c-13.69532,0 -24.83594,-11.14453 -24.83594,-24.83593l0,-79.2461c0,-13.69531 11.14063,-24.83594 24.83594,-24.83594l47.83594,0l0,-39.68359c0,-39.34766 12.35546,-72.82422 35.72656,-96.80469c23.47656,-24.08984 56.28515,-36.82031 94.8789,-36.82031l62.53125,0.10156c13.67188,0.02344 24.79297,11.16407 24.79297,24.83594l0,73.57813c0,13.69531 -11.13672,24.83593 -24.82812,24.83593l-42.10157,0.01563c-12.83984,0 -16.10937,2.57422 -16.80859,3.36328c-1.15234,1.30859 -2.52344,5.00781 -2.52344,15.22266l0,31.35156l58.26953,0c4.38672,0 8.63672,1.08203 12.28907,3.12109c7.8789,4.40235 12.77734,12.72656 12.77734,21.72266l-0.03125,79.24609c0,13.6875 -11.14062,24.82813 -24.83594,24.82813l-58.46875,0l0,184.9414c0,13.69532 -11.14453,24.83594 -24.83984,24.83594zm-76.8125,-30.01562l71.63281,0l0,-193.19532c0,-9.14453 7.44141,-16.58203 16.58203,-16.58203l66.72657,0l0.02734,-68.88281l-66.75781,0c-9.14063,0 -16.57813,-7.4375 -16.57813,-16.58203l0,-44.78906c0,-11.72657 1.19141,-25.0625 10.04297,-35.08594c10.69531,-12.11719 27.55078,-13.51563 39.30078,-13.51563l36.92188,-0.01562l0,-63.22656l-57.33203,-0.09375c-62.02344,0 -100.56641,39.70312 -100.56641,103.60937l0,53.11719c0,9.14062 -7.4375,16.58203 -16.57812,16.58203l-56.09375,0l0,68.88281l56.09375,0c9.14062,0 16.57812,7.4375 16.57812,16.58203l0,193.19532zm163.0625,-451.86719l0.00391,0l-0.00391,0zm0,0"/>
 </g>
</svg>