<svg width="512.00096" height="512.00096" xmlns="http://www.w3.org/2000/svg">

 <g>
  <title>Layer 1</title>
  <path fill="#ffffff" id="svg_1" d="m373.40625,0l-234.8125,0c-76.42187,0 -138.59375,62.17188 -138.59375,138.59375l0,234.81641c0,76.41797 62.17188,138.58984 138.59375,138.58984l234.81641,0c76.41797,0 138.58984,-62.17187 138.58984,-138.58984l0,-234.81641c0,-76.42187 -62.17187,-138.59375 -138.59375,-138.59375zm108.57813,373.41016c0,59.86718 -48.70704,108.57422 -108.57813,108.57422l-234.8125,0c-59.87109,0 -108.57812,-48.70704 -108.57812,-108.57422l0,-234.81641c0,-59.87109 48.70703,-108.57812 108.57812,-108.57812l234.81641,0c59.86718,0 108.57422,48.70703 108.57422,108.57812l0,234.81641zm0,0"/>
  <path fill="#ffffff" id="svg_2" d="m256,116.00391c-77.19531,0 -139.99609,62.80078 -139.99609,139.99609s62.80078,139.99609 139.99609,139.99609s139.99609,-62.80078 139.99609,-139.99609s-62.80078,-139.99609 -139.99609,-139.99609zm0,249.97656c-60.64062,0 -109.98047,-49.33594 -109.98047,-109.98047c0,-60.64063 49.33985,-109.98047 109.98047,-109.98047c60.64453,0 109.98047,49.33984 109.98047,109.98047c0,60.64453 -49.33594,109.98047 -109.98047,109.98047zm0,0"/>
  <path fill="#ffffff" id="svg_3" d="m399.34375,66.28516c-22.8125,0 -41.36719,18.55859 -41.36719,41.36718c0,22.8125 18.55469,41.3711 41.36719,41.3711s41.37109,-18.5586 41.37109,-41.3711s-18.55859,-41.36718 -41.37109,-41.36718zm0,52.71875c-6.25781,0 -11.35156,-5.09375 -11.35156,-11.35157c0,-6.26171 5.09375,-11.35156 11.35156,-11.35156c6.26172,0 11.35547,5.08985 11.35547,11.35156c0,6.25782 -5.09375,11.35157 -11.35547,11.35157zm0,0"/>
 </g>
</svg>