<svg width="500" height="500" xmlns="http://www.w3.org/2000/svg">

 <g>
  <title>Layer 1</title>
  <g id="svg_1" transform="matrix(0.584728 0 0 0.584728 -217.63 -100.223)">
   <g id="svg_2">
    <g id="svg_3">
     <path fill="#ffffff" id="svg_4" d="m748.57,852.09c-0.3,5.13 0.07,10.41 -1.01,15.38c-3.74,17.18 -16.77,25.52 -37.26,24.42c-3.59,-1.57 -7.19,-3.14 -10.78,-4.71c-8.92,-7.07 -13.68,-16.22 -13.81,-27.67c-0.01,-3.97 -0.03,-7.94 -0.04,-11.9c0.01,-15.33 0.03,-30.66 0.04,-45.99c-0.01,-4.46 -0.03,-8.93 -0.04,-13.39c0.01,-15.33 0.02,-30.66 0.03,-45.99c1.11,-5.65 -4.29,-5.61 -6.96,-7.96c-7.85,-6.4 -14.71,-13.75 -20.79,-21.84c-2.02,-3.53 -4.03,-7.05 -6.05,-10.58c-3.97,-10.97 -7.15,-22.12 -7.78,-33.85c0.04,-4.46 0.08,-8.92 0.12,-13.37c2.36,-9.78 3.59,-19.88 8.09,-29.08c13.52,-27.64 34.55,-44.32 66.27,-45.4c4.13,0.51 8.27,1.01 12.4,1.52c9.45,2.53 18.19,6.61 26.28,12.09c3.41,3.07 6.81,6.14 10.22,9.21c6.42,7.69 11.4,16.3 16.06,25.11c0.54,3.12 1.36,6.14 3.08,8.85c0.28,1.46 0.56,2.92 0.84,4.38c0.24,0.67 0.47,1.34 0.71,2.01c1.87,10.98 1.95,22.05 1.53,33.14c-1.99,7.53 -3.97,15.05 -5.96,22.58l0.04,-0.07c-0.84,0.26 -1.15,0.82 -0.94,1.67c-7.63,14.67 -17.55,27.39 -31.72,36.29c-2.58,1.62 -2.87,3.56 -2.85,6.14c0.14,12.58 0.18,25.15 0.25,37.73c0.01,3.97 0.02,7.94 0.04,11.91c-0.01,15.33 -0.03,30.66 -0.04,45.99c0.01,4.46 0.02,8.92 0.03,13.38zm-41.57,-17.81c-0.09,8.62 -0.34,17.24 -0.21,25.86c0.1,6.48 4.73,11.22 10.35,11.19c5.66,-0.03 10.25,-4.72 10.3,-11.25c0.11,-14.04 -0.09,-28.09 -0.16,-42.13c-0.01,-3.97 -0.03,-7.94 -0.04,-11.91c0.01,-15.33 0.03,-30.66 0.04,-45.99c-0.01,-4.46 -0.02,-8.92 -0.04,-13.39c0.09,-3.7 0.48,-7.43 0.2,-11.11c-0.52,-6.76 2.32,-10.95 8.24,-14.25c23.68,-13.22 34.47,-33.72 33.14,-60.71c0.17,-5.22 -0.59,-10.28 -2.59,-15.14c-1.88,-10.94 -6.92,-20.22 -14.79,-28c-2.36,-3.28 -5.18,-6.03 -8.94,-7.7c-12.49,-8.64 -25.76,-11.43 -40.21,-5.36c-15.51,5.14 -25.09,16.21 -30.95,30.99c-0.46,0.26 -0.6,0.64 -0.41,1.13c-0.29,0.59 -0.57,1.19 -0.86,1.78c-5.69,15.14 -7.12,30.45 -1.76,46.01c1.15,4.76 2.53,9.42 5.76,13.28c4.77,8.98 11.44,16.12 20.4,21.04c3.1,1.89 6.2,3.79 9.3,5.68c2.37,3.28 3.08,6.9 3.01,10.95c-0.15,9.24 0.08,18.48 0.15,27.72c0.02,4.46 0.03,8.92 0.05,13.39c-0.01,15.33 -0.02,30.66 -0.04,45.99c0.04,4 0.05,7.96 0.06,11.93z" class="st1"/>
    </g>
    <g id="svg_5">
     <path fill="#ffffff" id="svg_6" d="m713.85,892.88c-1.17,0 -2.37,-0.03 -3.6,-0.1l-0.31,-0.07l-10.98,-4.83c-9.25,-7.34 -14.01,-16.88 -14.15,-28.36l-0.04,-11.91l0.05,-45.99l-0.04,-13.38l0.03,-45.99c0.64,-3.32 -0.88,-4.2 -3.6,-5.48c-1.07,-0.5 -2.17,-1.03 -3.05,-1.81c-7.53,-6.14 -14.58,-13.54 -20.91,-21.97l-6.11,-10.68c-3.34,-9.19 -7.2,-21.25 -7.9,-34.24l0.12,-13.43c0.63,-2.71 1.16,-5.23 1.68,-7.75c1.52,-7.27 3.1,-14.77 6.49,-21.71c14.6,-29.84 36.52,-44.86 67.04,-45.91l12.54,1.52c9.47,2.53 18.4,6.64 26.67,12.24l10.31,9.29c6.84,8.18 12.05,17.4 16.25,25.36l0.09,0.26c0.43,2.49 1.16,5.71 2.96,8.53l0.12,0.31l0.84,4.38l0.67,1.88c2.06,12 1.95,23.64 1.58,33.47l-5.56,21.16l0.53,-0.17l-4.65,8.87l0.17,-0.63c-8.1,14.12 -17.77,24.61 -29.49,31.96c-2.1,1.32 -2.46,2.79 -2.43,5.38c0.1,9.18 0.15,18.36 0.2,27.54l0.09,22.11l-0.03,45.99l0.03,13.44c-0.09,1.6 -0.12,3.22 -0.15,4.84c-0.06,3.53 -0.13,7.19 -0.89,10.67c-3.59,16.54 -15.52,25.21 -34.57,25.21zm-3.35,-1.87c20.12,1.02 32.59,-7.17 36.19,-23.73c0.72,-3.32 0.78,-6.88 0.84,-10.33c0.03,-1.63 0.06,-3.26 0.15,-4.88l-0.03,-13.36l0.03,-45.99l-0.09,-22.1c-0.05,-9.17 -0.1,-18.35 -0.2,-27.52c-0.03,-2.54 0.2,-4.98 3.26,-6.91c12.62,-7.93 22.85,-19.6 31.26,-35.67c-0.13,-0.97 0.26,-1.74 1.1,-2.18l5.82,-22.09c0.34,-9.54 0.45,-21.07 -1.54,-32.76l-0.82,-2.59l-0.69,-3.61c-1.86,-2.99 -2.63,-6.3 -3.09,-8.89c-4.15,-7.85 -9.28,-16.92 -15.89,-24.84l-10.13,-9.12c-8.01,-5.41 -16.76,-9.44 -25.92,-11.89l-12.28,-1.49c-29.66,1.03 -51.08,15.72 -65.36,44.91c-3.3,6.74 -4.85,14.14 -6.35,21.3c-0.53,2.54 -1.06,5.08 -1.67,7.6l-0.09,13.17c0.68,12.7 4.49,24.6 7.73,33.54l5.98,10.44c6.19,8.22 13.13,15.51 20.58,21.59c0.72,0.64 1.66,1.08 2.66,1.55c2.46,1.16 5.52,2.6 4.6,7.26l0,22.82l-0.01,22.99l0.04,13.38l-0.05,45.99l0.04,11.9c0.13,10.87 4.63,19.93 13.38,26.9l10.55,4.61zm6.59,-18.79c-6.17,0 -11.08,-5.29 -11.18,-12.07c-0.09,-6.05 0,-12.19 0.1,-18.13c0.04,-2.58 0.08,-5.16 0.11,-7.75l-0.03,-11.9l0.03,-45.99l-0.05,-13.38c-0.02,-2.64 -0.06,-5.28 -0.09,-7.91c-0.08,-6.49 -0.17,-13.21 -0.06,-19.82c0.07,-4.32 -0.77,-7.5 -2.74,-10.28l-9.14,-5.58c-8.76,-4.82 -15.74,-12.03 -20.72,-21.39c-3.32,-3.93 -4.71,-8.83 -5.84,-13.49c-5.05,-14.64 -4.47,-29.88 1.79,-46.53l0.75,-1.56c-0.11,-0.64 0.11,-1.22 0.63,-1.63c6.48,-16.17 16.75,-26.39 31.4,-31.25c13.82,-5.81 27.25,-4.03 40.99,5.47c3.36,1.47 6.4,4.09 9.15,7.91c8.01,7.92 13.08,17.5 14.94,28.38c1.89,4.54 2.78,9.76 2.6,15.32c1.36,27.55 -9.95,48.25 -33.59,61.46c-5.92,3.3 -8.25,7.31 -7.79,13.4c0.2,2.6 0.07,5.23 -0.06,7.78c-0.06,1.14 -0.11,2.29 -0.14,3.42l0.03,13.36l-0.04,45.99l0.04,11.9c0.02,4.08 0.05,8.15 0.08,12.23c0.08,9.8 0.16,19.94 0.08,29.92c-0.05,6.88 -4.86,12.1 -11.19,12.13c-0.02,-0.01 -0.04,-0.01 -0.06,-0.01zm0.59,-270.18c-4.98,0 -9.97,1.07 -15.03,3.19c-14.26,4.73 -24.21,14.7 -30.47,30.49l-0.12,0.3l-0.28,0.15l0.14,0.36l-1.03,2.16c-6.08,16.18 -6.65,31.03 -1.72,45.34c1.1,4.54 2.42,9.2 5.6,13c4.91,9.21 11.66,16.17 20.14,20.84l9.59,5.94c2.25,3.1 3.26,6.75 3.18,11.49c-0.11,6.58 -0.02,13.29 0.06,19.77c0.03,2.64 0.07,5.28 0.09,7.93l0.05,13.39l-0.03,45.99l0.03,11.92c-0.03,2.59 -0.07,5.17 -0.11,7.76c-0.09,5.93 -0.19,12.05 -0.1,18.07c0.09,5.79 4.22,10.31 9.4,10.31c0.02,0 0.03,0 0.05,0c5.32,-0.03 9.37,-4.48 9.42,-10.37c0.08,-9.96 0,-20.09 -0.08,-29.89c-0.03,-4.08 -0.06,-8.15 -0.08,-12.24l-0.04,-11.91l0.04,-45.99l-0.03,-13.38c0.03,-1.18 0.09,-2.34 0.14,-3.49c0.13,-2.49 0.25,-5.07 0.06,-7.55c-0.52,-6.8 2.16,-11.45 8.69,-15.1c23.01,-12.85 34.01,-33 32.68,-59.88c0.18,-5.46 -0.65,-10.29 -2.52,-14.85c-1.86,-10.69 -6.75,-19.95 -14.59,-27.71c-2.7,-3.72 -5.42,-6.07 -8.67,-7.52c-8.25,-5.69 -16.34,-8.52 -24.46,-8.52z" class="st1"/>
    </g>
   </g>
   <g id="svg_7">
    <g id="svg_8">
     <path fill="#ffffff" id="svg_9" d="m956.46,644.27c-0.01,14.84 -0.02,29.68 -0.02,44.52c-0.06,4.46 -0.12,8.91 -0.18,13.37c-2.65,8.94 -5.24,17.88 -11.48,25.22c-6.51,7.67 -14.12,13.93 -23.93,16.39c-5.49,1.38 -6.49,4.09 -6.32,9.1c0.4,12.27 0.26,24.56 0.33,36.85c0.01,3.97 0.03,7.94 0.04,11.9c-0.01,15.33 -0.03,30.66 -0.04,45.99c0.01,4.46 0.02,8.92 0.04,13.39c-2,19.16 -12.33,29.49 -31.44,31.42c-3.91,-0.7 -7.83,-1.41 -11.74,-2.11c-9.55,-4.6 -15.81,-12 -18.9,-22.11c-0.27,-3.89 -0.55,-7.79 -0.82,-11.68c0.01,-15.33 0.03,-30.66 0.04,-45.99c-0.01,-4.46 -0.02,-8.92 -0.04,-13.39c0.01,-14.83 0.02,-29.67 0.04,-44.5c2.21,-7.83 -3.45,-8.24 -8.61,-9.13c-9.48,-4.46 -17.39,-10.87 -23.9,-19.06c-1.47,-2.49 -2.93,-4.97 -4.4,-7.46c-5.33,-12.91 -4.36,-26.56 -4.66,-40.06c-0.01,-4.46 -0.03,-8.93 -0.04,-13.39c0.01,-15.33 0.02,-30.66 0.03,-45.98c-0.01,-3.97 -0.02,-7.94 -0.03,-11.91c0.09,-3.9 0.22,-7.8 0.25,-11.7c0.1,-11.39 5.66,-15.5 16.36,-12.03c3.43,3.23 4.9,7.23 4.7,11.89c-0.01,14.84 -0.02,29.67 -0.03,44.51c0.01,4.46 0.03,8.92 0.04,13.39c0,14.83 0,29.66 0,44.5c-0.03,4.91 1.27,9.4 4.18,13.39c6.15,12.25 16.75,16.39 29.69,16.25c3.14,1.84 5.67,4.28 7.43,7.49c0.08,13.36 0.16,26.71 0.24,40.07c0.01,3.97 0.02,7.94 0.03,11.9c-0.01,15.33 -0.03,30.66 -0.04,45.99c0.01,3.97 0.03,7.94 0.04,11.9c-0.09,5.66 -0.36,11.33 -0.21,16.99c0.17,6.47 4.73,11.17 10.39,11.16c5.71,-0.01 10.22,-4.64 10.28,-11.22c0.12,-11.09 -0.1,-22.18 -0.17,-33.27c-0.01,-3.97 -0.03,-7.94 -0.04,-11.9c0.01,-15.33 0.03,-30.66 0.04,-45.99c-0.01,-3.97 -0.03,-7.93 -0.04,-11.9c0.09,-5.93 0.21,-11.85 0.27,-17.78c0.1,-9.57 2.86,-12.54 12.63,-13.45c16.19,-1.51 28.47,-14.26 28.88,-30.39c0.23,-9.13 -0.09,-18.28 -0.17,-27.42c-0.01,-3.97 -0.02,-7.94 -0.03,-11.9c0.01,-15.33 0.03,-30.66 0.04,-45.99c-0.01,-3.97 -0.03,-7.94 -0.04,-11.9c0.1,-2.71 0.03,-5.44 0.33,-8.14c0.71,-6.46 4.88,-9.41 13.32,-9.67c3.13,1.81 5.67,4.21 7.42,7.41c0.08,14.35 0.15,28.71 0.23,43.06c0,4.45 0,8.91 0.01,13.37z" class="st1"/>
    </g>
    <g id="svg_10">
     <path fill="#ffffff" id="svg_11" d="m883.41,893.31l-12.09,-2.2c-9.68,-4.66 -16.19,-12.28 -19.37,-22.65l-0.86,-11.88l0.04,-46.05l-0.03,-13.38l0.07,-44.75c0.65,-2.3 0.61,-3.98 -0.11,-5.12c-1.13,-1.78 -3.89,-2.24 -6.82,-2.73l-1.19,-0.23c-9.4,-4.42 -17.55,-10.92 -24.21,-19.31l-4.47,-7.56c-4.56,-11.03 -4.64,-22.57 -4.71,-33.74c-0.01,-2.25 -0.03,-4.51 -0.08,-6.75l-0.04,-13.41l0.03,-45.99l-0.03,-11.91l0.09,-3.74c0.07,-2.66 0.14,-5.32 0.16,-7.97c0.05,-6.02 1.61,-10.17 4.63,-12.35c2.99,-2.16 7.32,-2.33 12.89,-0.53l0.33,0.2c3.52,3.31 5.19,7.54 4.98,12.58l-0.03,44.47l0.04,13.38l0,44.5c-0.03,4.91 1.28,9.12 4.01,12.86c5.4,10.72 14.66,15.89 28.37,15.89c0.2,0 0.4,0 0.59,0l0.25,0l0.21,0.13c3.39,1.98 6,4.62 7.77,7.83l0.11,0.42l0.27,51.98l-0.04,45.99l0.04,11.9c-0.03,1.74 -0.07,3.46 -0.11,5.17c-0.1,3.87 -0.2,7.88 -0.1,11.8c0.16,5.87 4.23,10.3 9.48,10.3c0,0 0.01,0 0.02,0c5.38,-0.01 9.34,-4.36 9.4,-10.34c0.08,-7.79 0,-15.72 -0.08,-23.39c-0.03,-3.29 -0.07,-6.57 -0.09,-9.86l-0.06,-11.87l0.04,-46.03l-0.05,-11.9l0.09,-5.2c0.07,-4.2 0.14,-8.39 0.18,-12.59c0.1,-10.02 3.24,-13.37 13.44,-14.33c15.87,-1.48 27.68,-13.91 28.08,-29.53c0.16,-6.29 0.06,-12.7 -0.05,-18.9c-0.05,-2.83 -0.09,-5.66 -0.12,-8.49l-0.03,-11.91l0.04,-45.99l-0.04,-11.9c0.03,-0.89 0.05,-1.74 0.06,-2.59c0.03,-1.85 0.07,-3.76 0.27,-5.64c0.76,-6.87 5.26,-10.19 14.18,-10.46l0.25,-0.01l0.22,0.13c3.41,1.98 6.02,4.58 7.76,7.75l0.11,0.42l0.25,56.45l-0.02,44.52l-0.33,13.95c-2.59,8.76 -5.27,17.81 -11.55,25.2c-7.77,9.15 -15.52,14.45 -24.39,16.67c-5.02,1.26 -5.8,3.55 -5.65,8.22c0.28,8.76 0.29,17.67 0.3,26.29c0,3.53 0.01,7.05 0.03,10.57l0.04,11.91l-0.04,45.99l0.03,13.38c-2.06,19.79 -12.6,30.32 -32.24,32.31l-0.12,0.02zm-11.43,-3.86l11.5,2.07c18.59,-1.92 28.57,-11.93 30.52,-30.61l-0.04,-13.29l0.04,-45.99l-0.04,-11.9c-0.02,-3.53 -0.03,-7.05 -0.03,-10.58c-0.01,-8.6 -0.02,-17.5 -0.3,-26.24c-0.17,-5.17 0.92,-8.47 7,-10c8.49,-2.13 15.95,-7.24 23.47,-16.1c6.04,-7.11 8.66,-15.98 11.2,-24.56l0.07,-0.23l0.18,-13.25l0.02,-44.51l-0.02,-13.38l-0.23,-42.83c-1.55,-2.76 -3.77,-4.97 -6.76,-6.74c-7.9,0.3 -11.56,2.96 -12.21,8.87c-0.19,1.8 -0.23,3.67 -0.26,5.48c-0.02,0.86 -0.03,1.73 -0.06,2.59l0.04,11.87l-0.04,45.99l0.03,11.9c0.02,2.82 0.07,5.64 0.12,8.47c0.11,6.22 0.22,12.65 0.05,18.98c-0.42,16.54 -12.91,29.69 -29.69,31.26c-9.3,0.87 -11.74,3.46 -11.83,12.58c-0.04,4.2 -0.11,8.4 -0.18,12.6l-0.09,5.18l0.05,11.88l-0.04,45.99l0.04,11.9c0.02,3.28 0.06,6.57 0.09,9.85c0.08,7.68 0.16,15.61 0.08,23.43c-0.07,6.88 -4.88,12.09 -11.18,12.1c-0.01,0 -0.01,0 -0.02,0c-6.23,0 -11.08,-5.17 -11.26,-12.03c-0.1,-3.97 0,-8 0.1,-11.89c0.04,-1.72 0.09,-3.43 0.11,-5.14l-0.04,-11.88l0.04,-45.99l-0.03,-11.9l-0.24,-39.84c-1.59,-2.81 -3.81,-5.05 -6.79,-6.83c-0.13,0 -0.25,0 -0.37,0c-14.44,0 -24.22,-5.48 -29.88,-16.74c-2.84,-3.88 -4.31,-8.56 -4.28,-13.79l-0.01,-102.38c0.19,-4.53 -1.21,-8.15 -4.28,-11.11c-4.9,-1.56 -8.65,-1.44 -11.11,0.34c-2.54,1.83 -3.85,5.51 -3.9,10.92c-0.02,2.67 -0.09,5.34 -0.16,8.01l-0.09,3.71l0.03,11.88l-0.03,45.99l0.04,13.39c0.05,2.24 0.07,4.5 0.08,6.77c0.07,10.99 0.15,22.36 4.52,32.95l4.34,7.35c6.4,8.04 14.29,14.35 23.4,18.65l0.84,0.14c3.19,0.53 6.48,1.08 8.04,3.53c1,1.57 1.11,3.68 0.35,6.44l-0.03,44.38l0.03,13.38l-0.05,45.99l0.82,11.62c3.02,9.63 9.18,16.86 18.33,21.3z" class="st1"/>
    </g>
   </g>
   <g id="svg_12">
    <g id="svg_13">
     <path fill="#ffffff" id="svg_14" d="m851.98,621.98c0.09,-9.39 0.18,-18.78 0.26,-28.17c0.07,-8.48 3.86,-13.36 10.41,-13.37c6.54,-0.01 10.19,4.68 10.39,13.36c0.02,0.98 0.14,1.97 0.22,2.95c0.01,4.46 0.03,8.93 0.04,13.39c-0.01,15.33 -0.02,30.66 -0.03,45.99c0.01,3.97 0.02,7.94 0.03,11.9c-0.09,8.07 -0.18,16.13 -0.27,24.2c-0.08,7.98 -3.61,12.6 -9.86,12.89c-6.2,0.29 -9.95,-3.7 -11.15,-11.85c-0.01,-3.97 -0.03,-7.94 -0.04,-11.91c0.01,-15.33 0.02,-30.66 0.04,-45.98c-0.01,-4.48 -0.02,-8.94 -0.04,-13.4z" class="st1"/>
    </g>
    <g id="svg_15">
     <path fill="#ffffff" id="svg_16" d="m862.59,706.02c-4.51,0 -9.92,-2.3 -11.44,-12.63l-0.05,-12.03l0.04,-45.99l-0.04,-13.4l0.06,-5.59c0.07,-7.53 0.15,-15.05 0.21,-22.58c0.08,-9.04 4.2,-14.24 11.3,-14.25c0.01,0 0.03,0 0.04,0c7.04,0 11.03,5.05 11.25,14.23c0.01,0.67 0.08,1.34 0.14,2l0.08,0.9l0.04,13.45l-0.03,45.99l0.03,11.9l-0.27,24.21c-0.09,8.44 -3.99,13.45 -10.7,13.77c-0.23,0.01 -0.45,0.02 -0.66,0.02zm-9.72,-84.04l0.04,13.38l-0.04,45.99l0.04,11.91c1.13,7.61 4.52,11.34 10.22,10.97c5.73,-0.27 8.93,-4.53 9.01,-12.01l0.27,-24.2l-0.03,-11.89l0.03,-45.99l-0.11,-14.19c-0.06,-0.71 -0.13,-1.42 -0.14,-2.13c-0.14,-5.7 -1.89,-12.49 -9.47,-12.49c-0.01,0 -0.02,0 -0.03,0c-6.07,0.01 -9.46,4.45 -9.53,12.49c-0.06,7.53 -0.14,15.06 -0.21,22.58l-0.05,5.58z" class="st1"/>
    </g>
   </g>
   <g id="svg_17">
    <g id="svg_18">
     <path fill="#ffffff" id="svg_19" d="m907.2,580.42c5.48,2.94 7.93,7.27 7.53,13.7c-0.42,6.78 0.04,13.62 0.12,20.44c0.01,3.97 0.03,7.94 0.04,11.9c-0.01,15.33 -0.03,30.66 -0.04,45.99c0.01,3.97 0.03,7.93 0.04,11.9c-0.09,2.41 -0.24,4.82 -0.26,7.23c-0.09,10.11 -3.22,13.3 -13.37,13.53c-3.19,-1.77 -5.64,-4.28 -7.49,-7.41c-0.05,-15.34 -0.11,-30.68 -0.16,-46.02c-0.02,-3.97 -0.03,-7.94 -0.05,-11.9c0.01,-15.33 0.03,-30.66 0.04,-45.99c0.78,-10.27 3.62,-13.07 13.6,-13.37z" class="st1"/>
    </g>
    <g id="svg_20">
     <path fill="#ffffff" id="svg_21" d="m901.04,706.02l-0.21,-0.12c-3.21,-1.77 -5.84,-4.38 -7.82,-7.74l-0.13,-0.21l-0.16,-104.15c0.81,-10.78 4.05,-13.96 14.46,-14.28l0.24,-0.01l0.21,0.11c5.8,3.11 8.41,7.87 8,14.54c-0.29,4.68 -0.16,9.49 -0.02,14.14c0.06,2.08 0.12,4.16 0.14,6.23l0.04,11.91l-0.04,45.99l0.04,11.9l-0.1,2.32c-0.08,1.64 -0.15,3.29 -0.16,4.93c-0.09,10.53 -3.68,14.17 -14.24,14.42l-0.25,0.02zm-6.38,-8.55c1.78,2.95 4.01,5.16 6.82,6.76c9.42,-0.26 12.18,-3.14 12.26,-12.64c0.01,-1.67 0.09,-3.33 0.16,-4.99l0.1,-2.27l-0.04,-11.86l0.04,-45.99l-0.04,-11.86c-0.02,-2.1 -0.08,-4.17 -0.14,-6.24c-0.14,-4.69 -0.27,-9.54 0.02,-14.3c0.37,-5.91 -1.81,-9.97 -6.86,-12.75c-9.3,0.32 -11.77,2.83 -12.5,12.56l-0.04,45.92l0.22,57.66z" class="st1"/>
    </g>
   </g>
  </g>
  <g id="svg_22" transform="matrix(0.584728 0 0 0.584728 -217.63 -100.223)">
   <g id="svg_23">
    <path fill="#ffffff" id="svg_24" d="m567.32,801.32c-0.59,0 -1.14,-0.03 -1.76,-0.09c-78.51,-8.71 -137.74,-74.91 -137.74,-153.95c0,-81.89 63.82,-149.11 144.3,-154.6c21.44,-107.11 117.07,-186.33 227.61,-186.33c86.81,0 166.78,48.9 206.2,125.33c93.66,9.83 165.72,89.2 165.72,184.6c0,83.06 -55.66,156.52 -135.31,178.58c-8.31,2.26 -16.8,-2.57 -19.06,-10.81c-2.29,-8.25 2.54,-16.8 10.78,-19.06c66.3,-18.35 112.6,-79.53 112.6,-148.71c0,-82.04 -63.94,-149.85 -145.58,-154.38c-5.74,-0.31 -10.78,-3.75 -13.21,-8.93c-32.79,-70.23 -104.26,-115.63 -182.15,-115.63c-99.65,0 -185.25,74.23 -199.13,172.63c-1.08,7.62 -7.62,13.33 -15.34,13.33c-70.85,0 -126.45,55.6 -126.45,123.97c0,63.23 47.36,116.16 110.21,123.13c8.5,0.96 14.63,8.62 13.67,17.11c-0.85,7.95 -7.58,13.81 -15.36,13.81l0,0zm0,0" class="st1"/>
   </g>
   <g id="svg_25">
    <path fill="#ffffff" id="svg_26" d="m567.32,803.1c-0.65,0 -1.26,-0.03 -1.94,-0.1c-79.44,-8.81 -139.34,-75.75 -139.34,-155.71c0,-81.66 63.41,-150.04 144.61,-156.27c22.3,-108.11 118.42,-186.43 229.09,-186.43c86.33,0 167.6,49.21 207.34,125.45c94.91,10.45 166.36,90.35 166.36,186.26c0,83.88 -56.18,158.02 -136.62,180.29c-9.21,2.51 -18.74,-2.9 -21.25,-12.06c-1.24,-4.44 -0.66,-9.11 1.61,-13.13c2.27,-4.01 5.97,-6.89 10.41,-8.11c65.53,-18.13 111.29,-78.58 111.29,-146.99c0,-81.1 -63.21,-148.13 -143.89,-152.6c-6.37,-0.34 -12.01,-4.16 -14.72,-9.95c-32.51,-69.62 -103.37,-114.61 -180.53,-114.61c-98.76,0 -183.61,73.56 -197.37,171.11c-1.2,8.47 -8.55,14.85 -17.1,14.85c-68.75,0 -124.68,54.82 -124.68,122.2c0,62.33 46.7,114.5 108.63,121.37c4.59,0.52 8.7,2.79 11.58,6.39c2.88,3.6 4.18,8.11 3.67,12.69c-0.97,8.74 -8.34,15.35 -17.15,15.35zm232.42,-494.96c-109.43,0 -204.42,77.76 -225.87,184.9l-0.27,1.33l-1.35,0.09c-79.99,5.45 -142.65,72.58 -142.65,152.82c0,78.15 58.53,143.57 136.15,152.18c7.68,0.75 14.36,-4.64 15.18,-12.13c0.41,-3.64 -0.62,-7.21 -2.91,-10.07c-2.29,-2.86 -5.55,-4.66 -9.19,-5.07c-63.73,-7.06 -111.79,-60.76 -111.79,-124.9c0,-69.34 57.53,-125.75 128.23,-125.75c6.79,0 12.62,-5.07 13.58,-11.8c14.01,-99.29 100.38,-174.16 200.9,-174.16c78.54,0 150.67,45.79 183.76,116.66c2.15,4.61 6.63,7.63 11.69,7.91c82.57,4.58 147.26,73.16 147.26,156.15c0,70.01 -46.84,131.86 -113.9,150.42c-3.53,0.97 -6.46,3.26 -8.26,6.44c-1.81,3.19 -2.26,6.9 -1.28,10.43c2,7.27 9.55,11.56 16.88,9.57c78.89,-21.86 134,-94.59 134,-176.87c0,-94.41 -70.56,-173.01 -164.13,-182.83l-0.96,-0.1l-0.44,-0.85c-38.98,-75.55 -119.3,-124.37 -204.63,-124.37z" class="st1"/>
   </g>
  </g>
 </g>
</svg>