<?xml version="1.0" encoding="utf-8"?>
<!-- Generator: Adobe Illustrator 24.0.2, SVG Export Plug-In . SVG Version: 6.00 Build 0)  -->
<svg version="1.1" id="Livello_1" xmlns="http://www.w3.org/2000/svg" xmlns:xlink="http://www.w3.org/1999/xlink" x="0px" y="0px"
	 viewBox="0 0 1601 1601" style="enable-background:new 0 0 1601 1601;" xml:space="preserve">
<style type="text/css">
	.st0{fill:#FFFFFF;stroke:#FFFFFF;stroke-width:3;stroke-miterlimit:10;}
	.st1{fill:#FFFFFF;}
</style>
<g>
	<path class="st0" d="M325.69,1070.08v16.25h-25.74c-16.46,0-28.45-3.84-35.97-11.51c-7.53-7.67-11.29-19.97-11.29-36.87v-92.55
		h18.78v88.76c0,8.03,0.63,14.16,1.9,18.38c1.27,4.23,3.44,7.71,6.54,10.46c3.09,2.75,6.5,4.62,10.23,5.6
		c3.73,0.99,9.1,1.48,16.14,1.48H325.69z"/>
	<path class="st0" d="M385.81,988.64c13.64,0,25.32,4.92,35.02,14.77c9.7,9.85,14.56,21.73,14.56,35.66
		c0,13.36-4.85,24.9-14.56,34.6s-21.38,14.56-35.02,14.56c-14.07,0-26.02-4.85-35.87-14.56c-9.85-9.7-14.77-21.59-14.77-35.65
		c0-13.5,4.92-25.11,14.77-34.81C359.79,993.49,371.75,988.64,385.81,988.64z M385.81,1005.31c-9.14,0-16.95,3.16-23.42,9.49
		c-6.47,6.33-9.71,14.07-9.71,23.21c0,9.57,3.2,17.55,9.6,23.95c6.4,6.4,14.38,9.6,23.95,9.6c8.44,0,15.82-3.23,22.15-9.7
		c6.33-6.47,9.49-14.06,9.49-22.79c0-9.42-3.13-17.41-9.39-23.95C402.23,1008.58,394.68,1005.31,385.81,1005.31z"/>
	<path class="st0" d="M507.54,1071.34v14.98H495.1c-9.28,0-16.85-1.05-22.68-3.16c-5.84-2.11-12.27-6.82-19.3-14.14
		c-7.03-7.31-10.55-17.58-10.55-30.8c0-6.89,1.62-13.75,4.85-20.57c3.23-6.82,8.33-13.04,15.3-18.67
		c6.96-5.62,17.26-8.44,30.91-8.44h13.92v14.77h-9.92c-11.53,0-20.68,3.03-27.43,9.07c-6.75,6.05-10.13,14.21-10.13,24.47
		c0,10.13,3.3,18.07,9.92,23.84c6.61,5.77,15.68,8.65,27.22,8.65H507.54z"/>
	<path class="st0" d="M616.83,1086.32h-16.88v-41.98c0-11.81-2.99-21.27-8.97-28.38c-5.98-7.1-14.03-10.65-24.16-10.65
		c-9.14,0-16.88,3.24-23.21,9.7c-6.33,6.47-9.49,14.35-9.49,23.63c0,9.28,3.16,17.09,9.49,23.42c6.33,6.33,14.2,9.49,23.63,9.49
		c8.44,0,17.02-3.87,25.74-11.6v17.93c-4.5,3.8-8.86,6.47-13.08,8.02c-4.22,1.55-9.14,2.32-14.77,2.32
		c-13.5,0-24.97-4.78-34.39-14.35c-9.42-9.56-14.14-21.31-14.14-35.23c0-13.78,4.89-25.56,14.66-35.34
		c9.77-9.77,21.69-14.66,35.76-14.66c14.35,0,26.23,4.92,35.65,14.77c9.42,9.85,14.14,22.36,14.14,37.55V1086.32z"/>
	<path class="st0" d="M656.28,1086.32H639.4V945.39h16.88V1086.32z"/>
	<path class="st0" d="M693.83,950.24c3.38,0,6.26,1.2,8.65,3.59c2.39,2.39,3.59,5.27,3.59,8.65c0,3.52-1.2,6.47-3.59,8.86
		c-2.39,2.39-5.27,3.59-8.65,3.59c-3.52,0-6.47-1.19-8.86-3.59c-2.39-2.39-3.59-5.34-3.59-8.86c0-3.38,1.19-6.26,3.59-8.65
		C687.36,951.44,690.31,950.24,693.83,950.24z M702.48,1086.32H685.6v-95.99h16.88V1086.32z"/>
	<path class="st0" d="M728.43,1086.32v-14.77h37.76h2.11c5.49,0,8.93-0.11,10.34-0.32c1.4-0.21,3.27-0.91,5.59-2.11
		c2.32-1.19,3.48-3.9,3.48-8.12c0-4.78-2.88-8.16-8.65-10.13l-35.65-12.66c-6.75-2.39-11.57-5.38-14.45-8.97
		c-2.88-3.59-4.32-8.4-4.32-14.45c0-16.17,11.67-24.26,35.02-24.26h38.4v14.77h-40.93c-10.27,0-15.4,3.59-15.4,10.76
		c0,4.5,2.95,7.73,8.86,9.7l33.33,11.83c7.88,2.67,13.4,5.8,16.57,9.39c3.16,3.59,4.75,8.4,4.75,14.45
		c0,16.59-10.62,24.89-31.86,24.89H728.43z"/>
	<path class="st0" d="M955.86,1086.32h-16.88v-57.39c0-7.31-1.83-13.08-5.49-17.3c-3.66-4.22-8.65-6.33-14.98-6.33
		c-7.46,0-12.52,2-15.19,6.01c-2.67,4.01-4.29,7.25-4.85,9.7c-0.56,2.46-0.84,6.15-0.84,11.08v54.22h-16.88v-55.91
		c0-16.74-7.1-25.11-21.31-25.11c-7.17,0-12.13,2.04-14.87,6.12c-2.74,4.08-4.33,7.17-4.75,9.28c-0.42,2.11-0.63,5.63-0.63,10.55
		v55.06h-16.88v-57.6c0-7.73,0.67-13.64,2-17.72c1.34-4.08,4.61-8.82,9.81-14.24c5.2-5.41,13.36-8.12,24.47-8.12
		c13.5,0,23.77,5.91,30.8,17.72c6.75-11.81,16.81-17.72,30.17-17.72c11.11,0,19.94,3.48,26.48,10.44
		c6.54,6.96,9.81,16.28,9.81,27.95V1086.32z"/>
	<path class="st0" d="M1069.15,1086.32h-16.88v-41.98c0-11.81-2.99-21.27-8.97-28.38c-5.98-7.1-14.03-10.65-24.16-10.65
		c-9.14,0-16.88,3.24-23.21,9.7c-6.33,6.47-9.49,14.35-9.49,23.63c0,9.28,3.16,17.09,9.49,23.42c6.33,6.33,14.2,9.49,23.63,9.49
		c8.44,0,17.02-3.87,25.74-11.6v17.93c-4.5,3.8-8.86,6.47-13.08,8.02s-9.14,2.32-14.77,2.32c-13.5,0-24.97-4.78-34.39-14.35
		c-9.42-9.56-14.14-21.31-14.14-35.23c0-13.78,4.89-25.56,14.66-35.34c9.77-9.77,21.69-14.66,35.76-14.66
		c14.35,0,26.23,4.92,35.65,14.77c9.42,9.85,14.14,22.36,14.14,37.55V1086.32z"/>
	<path class="st0" d="M1108.61,1086.32h-16.88v-95.78h16.88v16.88c6.61-12.66,17.02-18.99,31.22-18.99h6.33v15.89h-3.38
		c-11.81,0-20.46,3.11-25.95,9.32c-5.49,6.22-8.23,15.96-8.23,29.24V1086.32z"/>
	<path class="st0" d="M1172.32,1005.73v44.73c0,8.3,1.48,13.86,4.43,16.67c2.95,2.82,8.93,4.22,17.93,4.22h8.23v14.98h-9.07
		c-14.63,0-24.68-2.53-30.17-7.6c-5.49-5.06-8.23-14.27-8.23-27.64v-89.24h16.88v29.11h30.59v14.77H1172.32z"/>
	<path class="st0" d="M1229.07,1063.75c3.38,0,6.26,1.2,8.65,3.59c2.39,2.39,3.59,5.27,3.59,8.65c0,3.38-1.2,6.26-3.59,8.65
		c-2.39,2.39-5.27,3.59-8.65,3.59c-3.38,0-6.26-1.2-8.65-3.59c-2.39-2.39-3.59-5.27-3.59-8.65c0-3.38,1.19-6.26,3.59-8.65
		C1222.81,1064.94,1225.7,1063.75,1229.07,1063.75z"/>
	<path class="st0" d="M1274.43,950.24c3.38,0,6.26,1.2,8.65,3.59c2.39,2.39,3.59,5.27,3.59,8.65c0,3.52-1.2,6.47-3.59,8.86
		c-2.39,2.39-5.27,3.59-8.65,3.59c-3.52,0-6.47-1.19-8.86-3.59c-2.39-2.39-3.59-5.34-3.59-8.86c0-3.38,1.19-6.26,3.59-8.65
		C1267.96,951.44,1270.91,950.24,1274.43,950.24z M1283.08,1086.32h-16.88v-95.99h16.88V1086.32z"/>
	<path class="st0" d="M1324.64,1005.73v44.73c0,8.3,1.48,13.86,4.43,16.67c2.95,2.82,8.93,4.22,17.93,4.22h8.23v14.98h-9.07
		c-14.63,0-24.68-2.53-30.17-7.6c-5.49-5.06-8.23-14.27-8.23-27.64v-89.24h16.88v29.11h30.59v14.77H1324.64z"/>
</g>
<g>
	<g>
		<g>
			<path class="st1" d="M748.57,852.09c-0.3,5.13,0.07,10.41-1.01,15.38c-3.74,17.18-16.77,25.52-37.26,24.42
				c-3.59-1.57-7.19-3.14-10.78-4.71c-8.92-7.07-13.68-16.22-13.81-27.67c-0.01-3.97-0.03-7.94-0.04-11.9
				c0.01-15.33,0.03-30.66,0.04-45.99c-0.01-4.46-0.03-8.93-0.04-13.39c0.01-15.33,0.02-30.66,0.03-45.99
				c1.11-5.65-4.29-5.61-6.96-7.96c-7.85-6.4-14.71-13.75-20.79-21.84c-2.02-3.53-4.03-7.05-6.05-10.58
				c-3.97-10.97-7.15-22.12-7.78-33.85c0.04-4.46,0.08-8.92,0.12-13.37c2.36-9.78,3.59-19.88,8.09-29.08
				c13.52-27.64,34.55-44.32,66.27-45.4c4.13,0.51,8.27,1.01,12.4,1.52c9.45,2.53,18.19,6.61,26.28,12.09
				c3.41,3.07,6.81,6.14,10.22,9.21c6.42,7.69,11.4,16.3,16.06,25.11c0.54,3.12,1.36,6.14,3.08,8.85c0.28,1.46,0.56,2.92,0.84,4.38
				c0.24,0.67,0.47,1.34,0.71,2.01c1.87,10.98,1.95,22.05,1.53,33.14c-1.99,7.53-3.97,15.05-5.96,22.58l0.04-0.07
				c-0.84,0.26-1.15,0.82-0.94,1.67c-7.63,14.67-17.55,27.39-31.72,36.29c-2.58,1.62-2.87,3.56-2.85,6.14
				c0.14,12.58,0.18,25.15,0.25,37.73c0.01,3.97,0.02,7.94,0.04,11.91c-0.01,15.33-0.03,30.66-0.04,45.99
				C748.55,843.17,748.56,847.63,748.57,852.09z M707,834.28c-0.09,8.62-0.34,17.24-0.21,25.86c0.1,6.48,4.73,11.22,10.35,11.19
				c5.66-0.03,10.25-4.72,10.3-11.25c0.11-14.04-0.09-28.09-0.16-42.13c-0.01-3.97-0.03-7.94-0.04-11.91
				c0.01-15.33,0.03-30.66,0.04-45.99c-0.01-4.46-0.02-8.92-0.04-13.39c0.09-3.7,0.48-7.43,0.2-11.11
				c-0.52-6.76,2.32-10.95,8.24-14.25c23.68-13.22,34.47-33.72,33.14-60.71c0.17-5.22-0.59-10.28-2.59-15.14
				c-1.88-10.94-6.92-20.22-14.79-28c-2.36-3.28-5.18-6.03-8.94-7.7c-12.49-8.64-25.76-11.43-40.21-5.36
				c-15.51,5.14-25.09,16.21-30.95,30.99c-0.46,0.26-0.6,0.64-0.41,1.13c-0.29,0.59-0.57,1.19-0.86,1.78
				c-5.69,15.14-7.12,30.45-1.76,46.01c1.15,4.76,2.53,9.42,5.76,13.28c4.77,8.98,11.44,16.12,20.4,21.04
				c3.1,1.89,6.2,3.79,9.3,5.68c2.37,3.28,3.08,6.9,3.01,10.95c-0.15,9.24,0.08,18.48,0.15,27.72c0.02,4.46,0.03,8.92,0.05,13.39
				c-0.01,15.33-0.02,30.66-0.04,45.99C706.98,826.35,706.99,830.31,707,834.28z"/>
		</g>
		<g>
			<path class="st1" d="M713.85,892.88c-1.17,0-2.37-0.03-3.6-0.1l-0.31-0.07l-10.98-4.83c-9.25-7.34-14.01-16.88-14.15-28.36
				l-0.04-11.91l0.05-45.99l-0.04-13.38l0.03-45.99c0.64-3.32-0.88-4.2-3.6-5.48c-1.07-0.5-2.17-1.03-3.05-1.81
				c-7.53-6.14-14.58-13.54-20.91-21.97l-6.11-10.68c-3.34-9.19-7.2-21.25-7.9-34.24l0.12-13.43c0.63-2.71,1.16-5.23,1.68-7.75
				c1.52-7.27,3.1-14.77,6.49-21.71c14.6-29.84,36.52-44.86,67.04-45.91l12.54,1.52c9.47,2.53,18.4,6.64,26.67,12.24l10.31,9.29
				c6.84,8.18,12.05,17.4,16.25,25.36l0.09,0.26c0.43,2.49,1.16,5.71,2.96,8.53l0.12,0.31l0.84,4.38l0.67,1.88
				c2.06,12,1.95,23.64,1.58,33.47l-5.56,21.16l0.53-0.17l-4.65,8.87l0.17-0.63c-8.1,14.12-17.77,24.61-29.49,31.96
				c-2.1,1.32-2.46,2.79-2.43,5.38c0.1,9.18,0.15,18.36,0.2,27.54l0.09,22.11l-0.03,45.99l0.03,13.44c-0.09,1.6-0.12,3.22-0.15,4.84
				c-0.06,3.53-0.13,7.19-0.89,10.67C744.83,884.21,732.9,892.88,713.85,892.88z M710.5,891.01c20.12,1.02,32.59-7.17,36.19-23.73
				c0.72-3.32,0.78-6.88,0.84-10.33c0.03-1.63,0.06-3.26,0.15-4.88l-0.03-13.36l0.03-45.99l-0.09-22.1
				c-0.05-9.17-0.1-18.35-0.2-27.52c-0.03-2.54,0.2-4.98,3.26-6.91c12.62-7.93,22.85-19.6,31.26-35.67
				c-0.13-0.97,0.26-1.74,1.1-2.18l5.82-22.09c0.34-9.54,0.45-21.07-1.54-32.76l-0.82-2.59l-0.69-3.61
				c-1.86-2.99-2.63-6.3-3.09-8.89c-4.15-7.85-9.28-16.92-15.89-24.84l-10.13-9.12c-8.01-5.41-16.76-9.44-25.92-11.89l-12.28-1.49
				c-29.66,1.03-51.08,15.72-65.36,44.91c-3.3,6.74-4.85,14.14-6.35,21.3c-0.53,2.54-1.06,5.08-1.67,7.6l-0.09,13.17
				c0.68,12.7,4.49,24.6,7.73,33.54l5.98,10.44c6.19,8.22,13.13,15.51,20.58,21.59c0.72,0.64,1.66,1.08,2.66,1.55
				c2.46,1.16,5.52,2.6,4.6,7.26l0,22.82l-0.01,22.99l0.04,13.38l-0.05,45.99l0.04,11.9c0.13,10.87,4.63,19.93,13.38,26.9
				L710.5,891.01z M717.09,872.22c-6.17,0-11.08-5.29-11.18-12.07c-0.09-6.05,0-12.19,0.1-18.13c0.04-2.58,0.08-5.16,0.11-7.75
				l-0.03-11.9l0.03-45.99l-0.05-13.38c-0.02-2.64-0.06-5.28-0.09-7.91c-0.08-6.49-0.17-13.21-0.06-19.82
				c0.07-4.32-0.77-7.5-2.74-10.28l-9.14-5.58c-8.76-4.82-15.74-12.03-20.72-21.39c-3.32-3.93-4.71-8.83-5.84-13.49
				c-5.05-14.64-4.47-29.88,1.79-46.53l0.75-1.56c-0.11-0.64,0.11-1.22,0.63-1.63c6.48-16.17,16.75-26.39,31.4-31.25
				c13.82-5.81,27.25-4.03,40.99,5.47c3.36,1.47,6.4,4.09,9.15,7.91c8.01,7.92,13.08,17.5,14.94,28.38
				c1.89,4.54,2.78,9.76,2.6,15.32c1.36,27.55-9.95,48.25-33.59,61.46c-5.92,3.3-8.25,7.31-7.79,13.4c0.2,2.6,0.07,5.23-0.06,7.78
				c-0.06,1.14-0.11,2.29-0.14,3.42l0.03,13.36l-0.04,45.99l0.04,11.9c0.02,4.08,0.05,8.15,0.08,12.23
				c0.08,9.8,0.16,19.94,0.08,29.92c-0.05,6.88-4.86,12.1-11.19,12.13C717.13,872.22,717.11,872.22,717.09,872.22z M717.68,602.04
				c-4.98,0-9.97,1.07-15.03,3.19c-14.26,4.73-24.21,14.7-30.47,30.49l-0.12,0.3l-0.28,0.15l0.14,0.36l-1.03,2.16
				c-6.08,16.18-6.65,31.03-1.72,45.34c1.1,4.54,2.42,9.2,5.6,13c4.91,9.21,11.66,16.17,20.14,20.84l9.59,5.94
				c2.25,3.1,3.26,6.75,3.18,11.49c-0.11,6.58-0.02,13.29,0.06,19.77c0.03,2.64,0.07,5.28,0.09,7.93l0.05,13.39l-0.03,45.99
				l0.03,11.92c-0.03,2.59-0.07,5.17-0.11,7.76c-0.09,5.93-0.19,12.05-0.1,18.07c0.09,5.79,4.22,10.31,9.4,10.31
				c0.02,0,0.03,0,0.05,0c5.32-0.03,9.37-4.48,9.42-10.37c0.08-9.96,0-20.09-0.08-29.89c-0.03-4.08-0.06-8.15-0.08-12.24
				l-0.04-11.91l0.04-45.99l-0.03-13.38c0.03-1.18,0.09-2.34,0.14-3.49c0.13-2.49,0.25-5.07,0.06-7.55
				c-0.52-6.8,2.16-11.45,8.69-15.1c23.01-12.85,34.01-33,32.68-59.88c0.18-5.46-0.65-10.29-2.52-14.85
				c-1.86-10.69-6.75-19.95-14.59-27.71c-2.7-3.72-5.42-6.07-8.67-7.52C733.89,604.87,725.8,602.04,717.68,602.04z"/>
		</g>
	</g>
	<g>
		<g>
			<path class="st1" d="M956.46,644.27c-0.01,14.84-0.02,29.68-0.02,44.52c-0.06,4.46-0.12,8.91-0.18,13.37
				c-2.65,8.94-5.24,17.88-11.48,25.22c-6.51,7.67-14.12,13.93-23.93,16.39c-5.49,1.38-6.49,4.09-6.32,9.1
				c0.4,12.27,0.26,24.56,0.33,36.85c0.01,3.97,0.03,7.94,0.04,11.9c-0.01,15.33-0.03,30.66-0.04,45.99
				c0.01,4.46,0.02,8.92,0.04,13.39c-2,19.16-12.33,29.49-31.44,31.42c-3.91-0.7-7.83-1.41-11.74-2.11
				c-9.55-4.6-15.81-12-18.9-22.11c-0.27-3.89-0.55-7.79-0.82-11.68c0.01-15.33,0.03-30.66,0.04-45.99
				c-0.01-4.46-0.02-8.92-0.04-13.39c0.01-14.83,0.02-29.67,0.04-44.5c2.21-7.83-3.45-8.24-8.61-9.13
				c-9.48-4.46-17.39-10.87-23.9-19.06c-1.47-2.49-2.93-4.97-4.4-7.46c-5.33-12.91-4.36-26.56-4.66-40.06
				c-0.01-4.46-0.03-8.93-0.04-13.39c0.01-15.33,0.02-30.66,0.03-45.98c-0.01-3.97-0.02-7.94-0.03-11.91
				c0.09-3.9,0.22-7.8,0.25-11.7c0.1-11.39,5.66-15.5,16.36-12.03c3.43,3.23,4.9,7.23,4.7,11.89c-0.01,14.84-0.02,29.67-0.03,44.51
				c0.01,4.46,0.03,8.92,0.04,13.39c0,14.83,0,29.66,0,44.5c-0.03,4.91,1.27,9.4,4.18,13.39c6.15,12.25,16.75,16.39,29.69,16.25
				c3.14,1.84,5.67,4.28,7.43,7.49c0.08,13.36,0.16,26.71,0.24,40.07c0.01,3.97,0.02,7.94,0.03,11.9
				c-0.01,15.33-0.03,30.66-0.04,45.99c0.01,3.97,0.03,7.94,0.04,11.9c-0.09,5.66-0.36,11.33-0.21,16.99
				c0.17,6.47,4.73,11.17,10.39,11.16c5.71-0.01,10.22-4.64,10.28-11.22c0.12-11.09-0.1-22.18-0.17-33.27
				c-0.01-3.97-0.03-7.94-0.04-11.9c0.01-15.33,0.03-30.66,0.04-45.99c-0.01-3.97-0.03-7.93-0.04-11.9
				c0.09-5.93,0.21-11.85,0.27-17.78c0.1-9.57,2.86-12.54,12.63-13.45c16.19-1.51,28.47-14.26,28.88-30.39
				c0.23-9.13-0.09-18.28-0.17-27.42c-0.01-3.97-0.02-7.94-0.03-11.9c0.01-15.33,0.03-30.66,0.04-45.99
				c-0.01-3.97-0.03-7.94-0.04-11.9c0.1-2.71,0.03-5.44,0.33-8.14c0.71-6.46,4.88-9.41,13.32-9.67c3.13,1.81,5.67,4.21,7.42,7.41
				c0.08,14.35,0.15,28.71,0.23,43.06C956.45,635.35,956.45,639.81,956.46,644.27z"/>
		</g>
		<g>
			<path class="st1" d="M883.41,893.31l-12.09-2.2c-9.68-4.66-16.19-12.28-19.37-22.65l-0.86-11.88l0.04-46.05l-0.03-13.38
				l0.07-44.75c0.65-2.3,0.61-3.98-0.11-5.12c-1.13-1.78-3.89-2.24-6.82-2.73l-1.19-0.23c-9.4-4.42-17.55-10.92-24.21-19.31
				l-4.47-7.56c-4.56-11.03-4.64-22.57-4.71-33.74c-0.01-2.25-0.03-4.51-0.08-6.75l-0.04-13.41l0.03-45.99l-0.03-11.91l0.09-3.74
				c0.07-2.66,0.14-5.32,0.16-7.97c0.05-6.02,1.61-10.17,4.63-12.35c2.99-2.16,7.32-2.33,12.89-0.53l0.33,0.2
				c3.52,3.31,5.19,7.54,4.98,12.58l-0.03,44.47l0.04,13.38v44.5c-0.03,4.91,1.28,9.12,4.01,12.86
				c5.4,10.72,14.66,15.89,28.37,15.89c0.2,0,0.4,0,0.59,0l0.25,0l0.21,0.13c3.39,1.98,6,4.62,7.77,7.83l0.11,0.42l0.27,51.98
				l-0.04,45.99l0.04,11.9c-0.03,1.74-0.07,3.46-0.11,5.17c-0.1,3.87-0.2,7.88-0.1,11.8c0.16,5.87,4.23,10.3,9.48,10.3
				c0,0,0.01,0,0.02,0c5.38-0.01,9.34-4.36,9.4-10.34c0.08-7.79,0-15.72-0.08-23.39c-0.03-3.29-0.07-6.57-0.09-9.86L892.67,815
				l0.04-46.03l-0.05-11.9l0.09-5.2c0.07-4.2,0.14-8.39,0.18-12.59c0.1-10.02,3.24-13.37,13.44-14.33
				c15.87-1.48,27.68-13.91,28.08-29.53c0.16-6.29,0.06-12.7-0.05-18.9c-0.05-2.83-0.09-5.66-0.12-8.49l-0.03-11.91l0.04-45.99
				l-0.04-11.9c0.03-0.89,0.05-1.74,0.06-2.59c0.03-1.85,0.07-3.76,0.27-5.64c0.76-6.87,5.26-10.19,14.18-10.46l0.25-0.01l0.22,0.13
				c3.41,1.98,6.02,4.58,7.76,7.75l0.11,0.42l0.25,56.45l-0.02,44.52L957,702.75c-2.59,8.76-5.27,17.81-11.55,25.2
				c-7.77,9.15-15.52,14.45-24.39,16.67c-5.02,1.26-5.8,3.55-5.65,8.22c0.28,8.76,0.29,17.67,0.3,26.29c0,3.53,0.01,7.05,0.03,10.57
				l0.04,11.91l-0.04,45.99l0.03,13.38c-2.06,19.79-12.6,30.32-32.24,32.31L883.41,893.31z M871.98,889.45l11.5,2.07
				c18.59-1.92,28.57-11.93,30.52-30.61l-0.04-13.29l0.04-45.99l-0.04-11.9c-0.02-3.53-0.03-7.05-0.03-10.58
				c-0.01-8.6-0.02-17.5-0.3-26.24c-0.17-5.17,0.92-8.47,7-10c8.49-2.13,15.95-7.24,23.47-16.1c6.04-7.11,8.66-15.98,11.2-24.56
				l0.07-0.23l0.18-13.25l0.02-44.51l-0.02-13.38l-0.23-42.83c-1.55-2.76-3.77-4.97-6.76-6.74c-7.9,0.3-11.56,2.96-12.21,8.87
				c-0.19,1.8-0.23,3.67-0.26,5.48c-0.02,0.86-0.03,1.73-0.06,2.59l0.04,11.87l-0.04,45.99l0.03,11.9c0.02,2.82,0.07,5.64,0.12,8.47
				c0.11,6.22,0.22,12.65,0.05,18.98c-0.42,16.54-12.91,29.69-29.69,31.26c-9.3,0.87-11.74,3.46-11.83,12.58
				c-0.04,4.2-0.11,8.4-0.18,12.6l-0.09,5.18l0.05,11.88l-0.04,45.99l0.04,11.9c0.02,3.28,0.06,6.57,0.09,9.85
				c0.08,7.68,0.16,15.61,0.08,23.43c-0.07,6.88-4.88,12.09-11.18,12.1c-0.01,0-0.01,0-0.02,0c-6.23,0-11.08-5.17-11.26-12.03
				c-0.1-3.97,0-8,0.1-11.89c0.04-1.72,0.09-3.43,0.11-5.14l-0.04-11.88l0.04-45.99l-0.03-11.9l-0.24-39.84
				c-1.59-2.81-3.81-5.05-6.79-6.83c-0.13,0-0.25,0-0.37,0c-14.44,0-24.22-5.48-29.88-16.74c-2.84-3.88-4.31-8.56-4.28-13.79
				l-0.01-102.38c0.19-4.53-1.21-8.15-4.28-11.11c-4.9-1.56-8.65-1.44-11.11,0.34c-2.54,1.83-3.85,5.51-3.9,10.92
				c-0.02,2.67-0.09,5.34-0.16,8.01l-0.09,3.71l0.03,11.88l-0.03,45.99l0.04,13.39c0.05,2.24,0.07,4.5,0.08,6.77
				c0.07,10.99,0.15,22.36,4.52,32.95l4.34,7.35c6.4,8.04,14.29,14.35,23.4,18.65l0.84,0.14c3.19,0.53,6.48,1.08,8.04,3.53
				c1,1.57,1.11,3.68,0.35,6.44l-0.03,44.38l0.03,13.38l-0.05,45.99l0.82,11.62C856.67,877.78,862.83,885.01,871.98,889.45z"/>
		</g>
	</g>
	<g>
		<g>
			<path class="st1" d="M851.98,621.98c0.09-9.39,0.18-18.78,0.26-28.17c0.07-8.48,3.86-13.36,10.41-13.37
				c6.54-0.01,10.19,4.68,10.39,13.36c0.02,0.98,0.14,1.97,0.22,2.95c0.01,4.46,0.03,8.93,0.04,13.39
				c-0.01,15.33-0.02,30.66-0.03,45.99c0.01,3.97,0.02,7.94,0.03,11.9c-0.09,8.07-0.18,16.13-0.27,24.2
				c-0.08,7.98-3.61,12.6-9.86,12.89c-6.2,0.29-9.95-3.7-11.15-11.85c-0.01-3.97-0.03-7.94-0.04-11.91
				c0.01-15.33,0.02-30.66,0.04-45.98C852.01,630.9,852,626.44,851.98,621.98z"/>
		</g>
		<g>
			<path class="st1" d="M862.59,706.02c-4.51,0-9.92-2.3-11.44-12.63l-0.05-12.03l0.04-45.99l-0.04-13.4l0.06-5.59
				c0.07-7.53,0.15-15.05,0.21-22.58c0.08-9.04,4.2-14.24,11.3-14.25c0.01,0,0.03,0,0.04,0c7.04,0,11.03,5.05,11.25,14.23
				c0.01,0.67,0.08,1.34,0.14,2l0.08,0.9l0.04,13.45l-0.03,45.99l0.03,11.9l-0.27,24.21c-0.09,8.44-3.99,13.45-10.7,13.77
				C863.02,706.01,862.8,706.02,862.59,706.02z M852.87,621.98l0.04,13.38l-0.04,45.99l0.04,11.91c1.13,7.61,4.52,11.34,10.22,10.97
				c5.73-0.27,8.93-4.53,9.01-12.01l0.27-24.2l-0.03-11.89l0.03-45.99l-0.11-14.19c-0.06-0.71-0.13-1.42-0.14-2.13
				c-0.14-5.7-1.89-12.49-9.47-12.49c-0.01,0-0.02,0-0.03,0c-6.07,0.01-9.46,4.45-9.53,12.49c-0.06,7.53-0.14,15.06-0.21,22.58
				L852.87,621.98z"/>
		</g>
	</g>
	<g>
		<g>
			<path class="st1" d="M907.2,580.42c5.48,2.94,7.93,7.27,7.53,13.7c-0.42,6.78,0.04,13.62,0.12,20.44
				c0.01,3.97,0.03,7.94,0.04,11.9c-0.01,15.33-0.03,30.66-0.04,45.99c0.01,3.97,0.03,7.93,0.04,11.9
				c-0.09,2.41-0.24,4.82-0.26,7.23c-0.09,10.11-3.22,13.3-13.37,13.53c-3.19-1.77-5.64-4.28-7.49-7.41
				c-0.05-15.34-0.11-30.68-0.16-46.02c-0.02-3.97-0.03-7.94-0.05-11.9c0.01-15.33,0.03-30.66,0.04-45.99
				C894.38,583.52,897.22,580.72,907.2,580.42z"/>
		</g>
		<g>
			<path class="st1" d="M901.04,706.02l-0.21-0.12c-3.21-1.77-5.84-4.38-7.82-7.74l-0.13-0.21l-0.16-104.15
				c0.81-10.78,4.05-13.96,14.46-14.28l0.24-0.01l0.21,0.11c5.8,3.11,8.41,7.87,8,14.54c-0.29,4.68-0.16,9.49-0.02,14.14
				c0.06,2.08,0.12,4.16,0.14,6.23l0.04,11.91l-0.04,45.99l0.04,11.9l-0.1,2.32c-0.08,1.64-0.15,3.29-0.16,4.93
				c-0.09,10.53-3.68,14.17-14.24,14.42L901.04,706.02z M894.66,697.47c1.78,2.95,4.01,5.16,6.82,6.76
				c9.42-0.26,12.18-3.14,12.26-12.64c0.01-1.67,0.09-3.33,0.16-4.99l0.1-2.27l-0.04-11.86l0.04-45.99l-0.04-11.86
				c-0.02-2.1-0.08-4.17-0.14-6.24c-0.14-4.69-0.27-9.54,0.02-14.3c0.37-5.91-1.81-9.97-6.86-12.75c-9.3,0.32-11.77,2.83-12.5,12.56
				l-0.04,45.92L894.66,697.47z"/>
		</g>
	</g>
</g>
<g>
	<g>
		<path class="st1" d="M567.32,801.32c-0.59,0-1.14-0.03-1.76-0.09c-78.51-8.71-137.74-74.91-137.74-153.95
			c0-81.89,63.82-149.11,144.3-154.6c21.44-107.11,117.07-186.33,227.61-186.33c86.81,0,166.78,48.9,206.2,125.33
			c93.66,9.83,165.72,89.2,165.72,184.6c0,83.06-55.66,156.52-135.31,178.58c-8.31,2.26-16.8-2.57-19.06-10.81
			c-2.29-8.25,2.54-16.8,10.78-19.06c66.3-18.35,112.6-79.53,112.6-148.71c0-82.04-63.94-149.85-145.58-154.38
			c-5.74-0.31-10.78-3.75-13.21-8.93c-32.79-70.23-104.26-115.63-182.15-115.63c-99.65,0-185.25,74.23-199.13,172.63
			c-1.08,7.62-7.62,13.33-15.34,13.33c-70.85,0-126.45,55.6-126.45,123.97c0,63.23,47.36,116.16,110.21,123.13
			c8.5,0.96,14.63,8.62,13.67,17.11C581.83,795.46,575.1,801.32,567.32,801.32L567.32,801.32z M567.32,801.32"/>
	</g>
	<g>
		<path class="st1" d="M567.32,803.1c-0.65,0-1.26-0.03-1.94-0.1c-79.44-8.81-139.34-75.75-139.34-155.71
			c0-81.66,63.41-150.04,144.61-156.27c22.3-108.11,118.42-186.43,229.09-186.43c86.33,0,167.6,49.21,207.34,125.45
			c94.91,10.45,166.36,90.35,166.36,186.26c0,83.88-56.18,158.02-136.62,180.29c-9.21,2.51-18.74-2.9-21.25-12.06
			c-1.24-4.44-0.66-9.11,1.61-13.13c2.27-4.01,5.97-6.89,10.41-8.11c65.53-18.13,111.29-78.58,111.29-146.99
			c0-81.1-63.21-148.13-143.89-152.6c-6.37-0.34-12.01-4.16-14.72-9.95c-32.51-69.62-103.37-114.61-180.53-114.61
			c-98.76,0-183.61,73.56-197.37,171.11c-1.2,8.47-8.55,14.85-17.1,14.85c-68.75,0-124.68,54.82-124.68,122.2
			c0,62.33,46.7,114.5,108.63,121.37c4.59,0.52,8.7,2.79,11.58,6.39c2.88,3.6,4.18,8.11,3.67,12.69
			C583.5,796.49,576.13,803.1,567.32,803.1z M799.74,308.14c-109.43,0-204.42,77.76-225.87,184.9l-0.27,1.33l-1.35,0.09
			c-79.99,5.45-142.65,72.58-142.65,152.82c0,78.15,58.53,143.57,136.15,152.18c7.68,0.75,14.36-4.64,15.18-12.13
			c0.41-3.64-0.62-7.21-2.91-10.07c-2.29-2.86-5.55-4.66-9.19-5.07c-63.73-7.06-111.79-60.76-111.79-124.9
			c0-69.34,57.53-125.75,128.23-125.75c6.79,0,12.62-5.07,13.58-11.8c14.01-99.29,100.38-174.16,200.9-174.16
			c78.54,0,150.67,45.79,183.76,116.66c2.15,4.61,6.63,7.63,11.69,7.91c82.57,4.58,147.26,73.16,147.26,156.15
			c0,70.01-46.84,131.86-113.9,150.42c-3.53,0.97-6.46,3.26-8.26,6.44c-1.81,3.19-2.26,6.9-1.28,10.43c2,7.27,9.55,11.56,16.88,9.57
			c78.89-21.86,134-94.59,134-176.87c0-94.41-70.56-173.01-164.13-182.83l-0.96-0.1l-0.44-0.85
			C965.39,356.96,885.07,308.14,799.74,308.14z"/>
	</g>
</g>
</svg>
